<svg width="30" height="24" viewBox="0 0 30 24" fill="none" xmlns="http://www.w3.org/2000/svg">
<path d="M4.10703 23.4054L4.26666 23.5379L4.42629 23.4054L15 14.633L25.5737 23.4054L25.7333 23.5379L25.893 23.4054L28.5763 21.1792L28.8082 20.9868L28.5763 20.7944L18.0749 12.0819L28.5763 3.36943L28.8082 3.17703L28.5763 2.98463L25.893 0.758402L25.7333 0.625968L25.5737 0.758402L15 9.53086L4.42629 0.758402L4.26666 0.625968L4.10703 0.758402L1.4237 2.98463L1.19179 3.17703L1.4237 3.36943L11.9251 12.0819L1.4237 20.7944L1.19179 20.9868L1.4237 21.1792L4.10703 23.4054Z" fill="#585353" stroke="#585353" stroke-width="0.5"/>
</svg>
