<svg width="179" height="179" viewBox="0 0 179 179" fill="none" xmlns="http://www.w3.org/2000/svg">
<g clip-path="url(#clip0_249_422)">
<rect width="179" height="179" fill="white"/>
<path d="M31.9826 73.294C26.6172 71.0208 23.4167 64.6861 24.6477 58.9233C25.7555 53.7253 24.3001 49.1571 20.9838 45.1246C16.2411 39.3618 16.4076 36.133 21.7514 30.7829C25.0749 27.4526 28.3767 24.1079 31.7364 20.8139C35.8637 16.7669 39.9041 16.5136 44.2123 20.2709C49.4981 24.8826 55.3197 26.4101 61.9306 23.7677C68.6646 21.0745 71.9157 15.8692 72.5746 8.75267C73.1539 2.52658 75.9271 0.123021 82.27 0.0433849C87.0924 -0.0145322 91.922 -0.0217718 96.7444 0.0433849C103.058 0.123021 105.803 2.53382 106.396 8.78887C107.07 15.9127 110.343 21.0962 117.084 23.7749C123.709 26.4101 129.524 24.8464 134.802 20.2347C138.973 16.5932 143.107 16.7742 147.017 20.5822C150.906 24.3686 154.751 28.1983 158.53 32.0933C162.18 35.8579 162.114 39.8397 158.979 44.1038C157.169 46.5725 155.656 49.3525 154.519 52.1977C153.606 54.4854 152.448 55.6076 150.001 55.2601C149.523 55.1949 149.037 55.1732 148.56 55.1298C144.939 54.8257 142.555 56.597 141.406 60.4437C145.728 58.0039 149.61 60.4002 153.592 61.1097C154.425 61.2617 155.286 62.4056 155.757 63.2888C158.791 68.9937 163.534 71.8968 169.906 72.5483C176.668 73.2433 178.913 75.8279 178.971 82.6404C179.014 87.3462 179.029 92.0519 178.971 96.7504C178.884 103.063 176.466 105.807 170.217 106.394C163.092 107.06 157.907 110.339 155.228 117.079C152.593 123.704 154.164 129.51 158.776 134.787C162.411 138.95 162.237 143.091 158.429 147.001C154.642 150.888 150.811 154.733 146.916 158.512C143.151 162.161 139.161 162.088 134.903 158.961C132.434 157.151 129.654 155.638 126.808 154.501C124.52 153.589 123.391 152.438 123.753 149.983C123.825 149.506 123.832 149.021 123.876 148.543C124.18 144.928 122.403 142.539 118.546 141.376C121.008 145.705 118.604 149.585 117.895 153.567C117.743 154.4 116.599 155.261 115.715 155.732C110.01 158.765 107.106 163.507 106.447 169.871C105.752 176.64 103.16 178.891 96.3679 178.949C91.6613 178.985 86.9621 179.007 82.2555 178.949C75.9343 178.862 73.19 176.452 72.6035 170.204C71.9374 163.087 68.6863 157.889 61.9378 155.203C55.3125 152.568 49.5054 154.132 44.2196 158.736C39.9113 162.494 35.8854 162.24 31.7437 158.179C28.2174 154.711 24.7346 151.2 21.2517 147.696C16.5525 142.961 16.4366 139.341 20.7811 134.136C28.5867 124.79 24.9373 111.041 13.6055 107.364C11.6866 106.741 9.59404 106.611 7.57386 106.336C3.38867 105.749 0.470627 103.295 0.267885 99.1468C-0.0434702 92.7759 -0.050711 86.3688 0.246162 79.9907C0.448905 75.6686 3.39591 73.4099 7.78384 72.5845C11.1581 71.9474 14.373 70.5285 17.7327 69.79C19.0216 69.5077 20.5856 69.9348 21.8745 70.4344C22.6782 70.7457 23.185 71.8027 23.8367 72.5121C27.3051 76.3202 27.4282 76.3347 32.0188 73.2868L31.9826 73.294ZM19.514 75.4297C15.6039 76.2985 12.4831 77.3193 9.29717 77.6088C6.14742 77.8984 5.12647 79.3536 5.17715 82.2567C5.2568 86.9625 5.30025 91.6682 5.16267 96.374C5.06854 99.6101 6.1619 101.159 9.65197 101.413C18.6306 102.064 25.1111 106.683 28.4708 115.031C31.8306 123.385 30.3245 131.124 24.2784 137.857C22.3523 140.007 22.461 141.824 24.5173 143.772C26.972 146.096 29.3108 148.528 31.7002 150.917C35.5379 154.759 39.6458 155.247 44.0241 152.38C57.2023 143.75 74.9641 151.685 77.3101 167.257C77.9617 171.601 80.4815 173.773 84.8695 173.773C88.4899 173.773 92.1175 173.614 95.7307 173.816C99.4018 174.019 101.248 172.911 101.473 168.857C101.856 161.951 105.238 156.521 110.944 152.583C114.144 150.374 115.136 146.349 113.268 142.932C112.225 141.028 110.965 139.233 110.125 137.249C109.676 136.185 109.401 134.158 109.937 133.767C110.857 133.086 112.667 132.854 113.753 133.289C118.213 135.084 122.594 137.111 126.895 139.269C127.909 139.776 129.335 141.303 129.169 142.042C127.793 148.007 130.769 151.062 135.845 153.002C136.482 153.249 137.025 153.842 137.517 154.363C139.907 156.905 141.999 156.456 144.222 154.016C146.576 151.431 149.146 149.05 151.622 146.574C155.069 143.128 155.407 139.385 152.636 135.345C152.028 134.454 151.507 133.492 151.021 132.529C144.693 120.062 152.643 102.499 169.326 101.391C172.816 101.159 173.917 99.6101 173.823 96.3667C173.692 91.784 173.685 87.1941 173.823 82.6114C173.917 79.3681 172.824 77.7826 169.326 77.5799C162.295 77.1745 156.691 73.9383 152.651 68.1104C150.312 64.7368 146.358 63.8173 142.709 65.8372C141.022 66.7711 139.429 67.9439 137.648 68.6027C136.359 69.0806 134.831 68.8923 133.405 68.9937C133.441 67.5385 133.1 65.953 133.578 64.6644C134.737 61.5079 136.257 58.489 137.662 55.4266C140.631 48.9471 139.653 49.4684 146.684 49.8593C148.864 49.9824 149.812 49.3163 150.688 47.3182C151.688 45.045 153.252 42.9744 154.823 41.0197C156.503 38.9347 156.517 37.2262 154.584 35.3511C151.043 31.8978 147.481 28.459 144.107 24.8391C141.775 22.3415 139.813 22.3849 137.373 24.6871C133.738 28.1115 129.285 29.9141 124.288 30.0951C112.283 30.5367 102.885 22.479 101.494 10.1065C101.045 6.1102 99.409 4.97358 95.7307 5.15457C91.5165 5.35728 87.2807 5.32832 83.0665 5.16181C79.5837 5.02425 77.8097 6.01608 77.5273 9.92549C76.8829 18.7578 72.227 25.1215 64.0377 28.4445C55.6963 31.8326 47.9341 30.3847 41.1929 24.3396C38.8686 22.2546 37.0367 22.5876 35.002 24.7161C31.7582 28.1187 28.4708 31.4996 25.0097 34.685C22.4103 37.0741 22.3379 39.0505 24.7418 41.693C29.2166 46.6087 30.882 52.5525 29.8611 59.1188C29.0356 64.4399 30.6648 67.2634 35.7551 68.7113C37.7246 69.2688 39.752 69.6814 41.6129 70.4923C42.5397 70.8977 43.7055 72.0271 43.7344 72.8596C43.7634 73.7429 42.7642 75.0605 41.8736 75.4949C39.5058 76.6532 36.805 77.16 34.5024 78.4124C28.4781 81.7065 23.2574 81.9599 19.3329 75.3356C19.2822 75.256 19.1229 75.2415 19.514 75.4008V75.4297Z" fill="black"/>
<path d="M133.716 89.4095C133.745 114.06 114.05 133.752 89.395 133.723C64.9355 133.694 45.284 114.046 45.255 89.5905C45.2333 64.9323 64.9066 45.2549 89.576 45.2839C114.043 45.3056 133.687 64.954 133.716 89.4167V89.4095ZM128.611 89.6484C128.64 67.944 111.298 50.4313 89.7281 50.3878C67.9839 50.3444 50.4322 67.6327 50.367 89.1706C50.3019 111.085 67.6508 128.605 89.4239 128.619C111.096 128.634 128.575 111.244 128.604 89.6556L128.611 89.6484Z" fill="black"/>
<path d="M89.156 108.262C82.7696 108.262 76.376 108.327 69.9896 108.247C63.5235 108.167 60.8082 103.578 63.987 98.003C70.482 86.6078 77.0421 75.2488 83.653 63.9188C86.7665 58.5832 92.1754 58.547 95.2745 63.8536C101.958 75.2778 108.583 86.7381 115.122 98.2419C118.061 103.404 115.353 108.11 109.409 108.225C102.66 108.356 95.9117 108.254 89.156 108.254V108.262ZM89.4746 64.0708C81.7631 77.4279 74.6454 89.7643 67.2091 102.651H111.769C104.253 89.6484 97.1281 77.3193 89.4674 64.0708H89.4746Z" fill="black"/>
<path d="M86.9548 82.6984C86.9548 80.4034 86.7086 78.0723 87.0707 75.8425C87.23 74.8579 88.6202 74.0687 89.4456 73.1927C90.3001 74.047 91.8424 74.8579 91.893 75.7483C92.1465 80.4396 92.1465 85.1526 91.9075 89.8439C91.8641 90.7416 90.358 91.5597 89.5325 92.414C88.6709 91.4656 87.2372 90.6186 87.0562 89.5471C86.6724 87.3245 86.9403 84.9861 86.9403 82.6912C86.9476 82.6912 86.9548 82.6912 86.962 82.6912L86.9548 82.6984Z" fill="black"/>
<path d="M93.696 96.9025C91.7121 98.2563 90.5173 99.6898 89.6412 99.516C88.4972 99.2916 87.6065 97.7785 86.6073 96.8229C87.5196 95.8745 88.4247 94.1949 89.3588 94.1732C90.4884 94.1442 91.6541 95.527 93.696 96.8953V96.9025Z" fill="black"/>
</g>
<defs>
<clipPath id="clip0_249_422">
<rect width="179" height="179" fill="white"/>
</clipPath>
</defs>
</svg>
