<svg width="1928" height="1666" viewBox="0 0 1928 1666" fill="none" xmlns="http://www.w3.org/2000/svg">
<g clip-path="url(#clip0_249_350)">
<rect width="1928" height="1666" fill="white"/>
<path d="M257.945 720.653C253.709 717.292 246.178 715.852 236.293 715.852C225.467 715.852 217.465 717.772 212.287 722.093C207.109 726.414 204.756 732.656 204.756 740.818L208.051 757.142C203.344 750.42 197.225 744.178 190.164 737.937C183.104 731.695 174.16 726.894 163.805 722.573C153.449 718.732 140.74 716.332 125.678 716.332C108.732 716.332 93.1992 720.173 78.1367 727.374C63.0742 734.576 49.8945 744.659 38.127 757.142C26.3594 769.625 17.416 784.028 10.3555 800.352C3.76562 816.676 0.470703 833.48 0.470703 851.724C0.470703 869.969 3.76562 888.213 10.3555 905.017C16.9453 921.341 26.3594 936.225 37.6562 949.188C48.9531 962.151 62.6035 972.233 77.666 979.435C92.7285 986.637 108.732 990.478 126.148 990.478C142.152 990.478 155.803 988.077 167.1 982.796C178.396 977.995 187.34 972.233 194.4 965.512C201.461 958.79 206.168 953.509 208.992 948.708L205.227 966.952C205.227 974.154 207.58 979.435 212.758 983.756C217.936 987.597 225.467 989.998 236.293 989.998C247.119 989.998 253.709 988.557 258.416 985.676C263.123 982.796 265.947 978.475 266.889 973.193C267.83 967.912 268.301 962.151 268.301 955.909V752.34C268.301 745.619 267.83 739.857 266.889 734.096C265.947 728.815 263.123 724.494 258.887 721.133L257.945 720.653ZM192.518 889.173C186.398 900.216 178.396 908.858 168.982 915.1C159.098 921.341 148.271 924.702 135.562 924.702C121.912 924.702 110.145 921.341 99.3184 915.1C88.4922 908.858 80.0195 900.216 73.9004 889.653C67.7812 879.091 64.4863 866.608 64.4863 853.645C64.4863 840.682 67.3105 827.719 73.4297 816.676C79.5488 805.633 87.5508 796.991 98.377 790.75C108.732 784.028 120.971 781.147 134.15 781.147C146.389 781.147 157.686 784.028 167.57 790.27C177.455 796.511 185.457 804.673 192.047 815.716C198.166 826.278 201.461 839.241 201.461 853.645C201.461 867.088 198.637 879.091 192.518 890.134V889.173Z" fill="#134A83"/>
<path d="M813.375 730.735C792.664 718.252 769.6 712.011 744.182 712.011C725.354 712.011 707.467 715.852 690.992 723.053C674.518 730.255 659.926 740.338 647.217 753.301C634.508 766.264 624.623 781.147 617.092 798.431C610.031 815.716 606.266 833.96 606.266 853.645C606.266 873.329 610.031 893.014 618.033 909.818C626.035 927.102 636.391 941.506 649.57 954.469C662.75 966.952 677.812 977.034 694.287 983.756C710.762 990.478 727.707 993.838 745.123 993.838C762.539 993.838 779.014 990.478 795.018 983.756C811.021 977.034 825.613 967.432 838.793 954.949C851.973 942.466 862.328 927.582 869.859 910.298C877.391 893.014 881.156 873.81 881.156 852.685C881.156 825.798 875.037 802.272 862.799 780.667C850.561 759.542 834.086 742.738 813.375 730.255V730.735ZM806.314 892.534C799.254 904.057 790.311 912.699 779.014 918.94C767.717 925.182 756.42 928.063 744.182 928.063C731.943 928.063 720.176 925.182 708.879 918.94C697.582 912.699 688.639 904.057 682.049 893.014C674.988 881.491 671.693 868.048 671.693 852.685C671.693 838.761 674.988 825.798 681.107 814.755C687.697 803.233 696.17 794.591 706.996 787.869C717.822 781.147 730.061 778.267 743.711 778.267C757.832 778.267 770.541 781.627 781.367 787.869C792.193 794.11 801.137 802.753 807.256 813.795C813.846 824.838 816.67 837.801 816.67 852.204C816.67 867.568 812.904 881.491 805.844 893.014L806.314 892.534Z" fill="#134A83"/>
<path d="M987.535 729.775C986.123 725.934 983.299 722.573 978.592 720.173C973.885 717.772 966.824 716.332 956.939 716.332C947.055 716.332 939.523 717.772 934.816 720.653C930.109 723.534 927.285 727.375 926.344 732.176C925.402 736.977 924.932 743.218 924.932 749.94V956.39C924.932 962.631 925.402 968.392 926.344 973.674C927.285 978.955 930.109 983.276 934.816 986.157C939.523 989.517 946.584 990.958 956.469 990.958C966.824 990.958 974.826 989.517 979.533 986.637C984.24 983.756 987.064 979.915 988.477 974.634C989.418 969.833 989.889 964.071 989.889 957.83V822.437C989.889 815.236 991.301 808.514 994.125 802.753C996.949 796.991 1000.71 792.19 1005.42 788.349C1010.13 784.508 1015.31 781.628 1020.96 780.187C1026.6 778.267 1032.25 777.307 1037.43 777.307C1044.02 777.307 1048.73 777.787 1052.02 778.747C1055.32 779.707 1057.67 781.147 1059.08 782.588C1060.49 784.028 1062.85 785.468 1065.2 786.429C1067.55 787.389 1071.79 787.869 1077.44 787.869C1085.44 787.869 1092.5 784.028 1098.15 775.386C1103.8 767.224 1107.09 757.142 1107.09 745.139C1107.09 740.818 1106.15 736.497 1103.8 733.136C1101.45 729.775 1098.62 726.414 1094.38 724.014C1090.15 721.613 1085.91 719.213 1081.21 717.772C1076.5 716.332 1071.32 714.892 1066.61 713.931C1061.91 712.971 1057.2 712.491 1052.49 712.491C1042.14 712.491 1032.72 713.931 1025.19 716.812C1017.66 719.693 1011.07 723.053 1005.42 727.375C999.773 731.696 995.537 736.017 992.242 740.338C988.947 744.659 986.594 748.019 984.711 751.38L988.947 741.298C988.947 737.457 988.477 733.616 987.064 729.775H987.535Z" fill="#134A83"/>
<path d="M315.371 990.478C315.371 990.478 317.724 991.438 318.666 991.918C318.666 991.918 319.136 991.918 319.607 992.398C319.607 992.398 320.549 992.398 321.019 992.398C321.019 992.398 321.49 992.398 321.961 992.398C329.963 995.279 338.435 996.239 343.613 996.239C362.912 996.239 378.445 991.918 379.857 969.833C381.74 942.946 377.974 915.58 378.916 888.213C379.386 869.969 382.211 851.244 388.33 834.44C392.095 824.358 396.802 814.276 403.863 805.633C420.338 784.989 447.638 772.505 472.586 784.508C477.293 786.909 482 790.27 485.765 794.111C500.357 808.994 504.593 829.639 505.535 849.804C505.535 857.486 505.535 865.168 505.535 872.85C504.593 898.296 501.299 923.742 502.24 948.708C502.24 958.79 503.181 968.393 505.064 977.995C509.301 1001.52 549.781 1000.56 562.961 986.637C570.963 977.995 570.492 959.75 571.433 949.188C573.316 917.98 574.728 884.852 573.316 853.165C573.316 844.523 572.375 836.361 571.433 827.719C567.197 792.19 552.135 759.062 522.01 738.897C516.832 735.537 511.183 732.656 505.535 729.775C486.236 721.133 465.054 717.772 444.343 720.173C431.634 721.613 421.279 724.974 410.453 731.696C406.217 734.576 393.037 740.338 393.037 746.579C393.037 728.335 394.449 710.571 395.861 692.806C416.572 448.908 553.547 235.256 759.244 130.111C924.931 45.6109 1117.92 14.8835 1300.08 50.412C1470.95 83.0598 1630.99 175.242 1743.95 309.674C1598.04 130.591 1378.69 14.8835 1150.87 1.44024C911.281 -12.4831 666.986 88.3411 507.888 271.265C406.687 387.933 345.025 516.604 318.195 674.562C317.254 679.363 316.783 684.644 316.312 689.445C313.017 710.571 310.193 731.696 307.84 753.781C306.898 765.304 306.898 777.787 305.957 789.31C302.191 847.884 301.25 909.338 305.015 976.555C305.015 981.836 308.781 985.677 313.959 989.037C314.429 989.518 314.9 989.998 315.371 990.478Z" fill="#134A83"/>
<path d="M1213.94 729.775C1212.53 725.934 1209.71 722.573 1205 720.173C1200.29 717.772 1193.23 716.332 1183.35 716.332C1173.46 716.332 1165.93 717.772 1161.22 720.653C1156.52 723.534 1153.69 727.375 1152.75 732.176C1151.81 736.977 1151.34 743.218 1151.34 749.94V956.39C1151.34 962.631 1151.81 968.392 1152.75 973.674C1153.69 978.955 1156.52 983.276 1161.22 986.157C1165.93 989.517 1172.99 990.958 1182.88 990.958C1193.23 990.958 1201.23 989.517 1205.94 986.637C1210.65 983.756 1213.47 979.915 1214.88 974.634C1215.83 969.833 1216.3 964.071 1216.3 957.83V822.437C1216.3 815.236 1217.71 808.514 1220.53 802.753C1223.36 796.991 1227.12 792.19 1231.83 788.349C1236.54 784.508 1241.71 781.628 1247.36 780.187C1253.01 778.267 1258.66 777.307 1263.84 777.307C1270.43 777.307 1275.13 777.787 1278.43 778.747C1281.72 779.707 1284.08 781.147 1285.49 782.588C1286.9 784.028 1289.26 785.468 1291.61 786.429C1293.96 787.389 1298.2 787.869 1303.85 787.869C1311.85 787.869 1318.91 784.028 1324.56 775.386C1330.21 767.224 1333.5 757.142 1333.5 745.139C1333.5 740.818 1332.56 736.497 1330.21 733.136C1327.85 729.775 1325.03 726.414 1320.79 724.014C1316.56 721.613 1312.32 719.213 1307.61 717.772C1302.91 716.332 1297.73 714.892 1293.02 713.931C1288.31 712.971 1283.61 712.491 1278.9 712.491C1268.54 712.491 1259.13 713.931 1251.6 716.812C1244.07 719.693 1237.48 723.053 1231.83 727.375C1226.18 731.696 1221.95 736.017 1218.65 740.338C1215.36 744.659 1213 748.019 1211.12 751.38L1215.36 741.298C1215.36 737.457 1214.88 733.616 1213.47 729.775H1213.94Z" fill="#134A83"/>
<path d="M1923.76 820.997C1920.94 816.676 1917.17 813.795 1912.94 812.835C1908.23 811.875 1903.52 811.395 1897.87 811.395H1832.45V745.619C1832.45 739.857 1831.98 734.576 1831.04 729.775C1830.09 724.974 1827.27 721.613 1823.03 718.732C1818.8 715.852 1812.21 714.411 1802.79 714.411C1793.38 714.411 1786.32 715.852 1781.61 718.252C1776.9 720.653 1774.08 724.494 1773.14 729.295C1772.2 734.096 1771.73 738.897 1771.73 744.659V811.395H1706.77C1701.12 811.395 1696.41 811.875 1691.71 812.835C1687 813.795 1683.23 816.676 1680.41 820.997C1677.59 825.318 1676.17 832.52 1676.17 842.602C1676.17 852.685 1677.59 859.406 1679.94 863.727C1682.29 868.048 1686.06 870.929 1690.77 871.889C1695.47 872.849 1700.18 873.33 1705.36 873.33H1771.73V939.585C1771.73 945.347 1772.2 950.148 1773.14 954.949C1774.08 959.75 1776.9 963.111 1781.14 965.992C1785.38 968.872 1792.44 970.313 1801.85 970.313C1811.27 970.313 1818.8 968.872 1823.03 965.992C1827.27 963.111 1829.62 959.27 1831.04 954.949C1831.98 950.148 1832.45 944.867 1832.45 939.105V873.33H1898.35C1903.99 873.33 1908.7 872.849 1912.94 871.889C1917.17 870.929 1920.94 868.048 1923.76 863.727C1926.59 859.406 1928 852.204 1928 842.602C1928 833 1926.59 825.318 1923.76 820.997Z" fill="#134A83"/>
<path d="M1839.04 1129.71C1819.74 1117.23 1799.03 1123.95 1780.67 1134.03C1719.95 1168.12 1694.06 1231.98 1660.64 1289.59C1614.51 1369.29 1553.79 1435.06 1477.54 1485.96C1454 1501.32 1429.53 1514.76 1404.58 1527.25C1391.4 1533.97 1377.75 1540.21 1364.57 1546.45C1361.27 1547.89 1350.45 1550.77 1350.45 1554.61C1350.45 1559.89 1357.51 1559.41 1360.8 1558.93C1470.48 1537.33 1574.03 1491.72 1669.58 1433.62C1711.95 1407.7 1776.9 1367.37 1821.62 1316.96C1863.98 1269.9 1888.46 1215.17 1861.16 1156.12C1856.45 1145.55 1849.39 1135.95 1839.51 1129.71H1839.04Z" fill="#7ECFF5"/>
<path d="M1654.05 1186.84C1654.05 1190.69 1654.05 1227.65 1657.82 1227.65C1669.58 1228.13 1676.64 1212.29 1681.82 1204.13C1701.59 1171 1718.07 1133.07 1712.42 1093.22C1711.95 1089.38 1711.01 1086.02 1710.54 1082.18C1703.47 1052.89 1685.12 1026.97 1655.93 1016.88C1630.99 1008.24 1605.57 1013.04 1605.57 1044.25C1605.57 1075.94 1624.87 1102.82 1637.58 1129.71C1646.05 1147.48 1653.11 1166.68 1654.05 1186.84Z" fill="#7ECFF5"/>
<path d="M1455.41 1557.49C1368.8 1583.9 1280.78 1592.06 1192.29 1576.7C1044.02 1551.25 915.047 1456.19 827.967 1333.76C814.317 1315.04 801.608 1295.35 787.016 1277.11C759.715 1242.54 731.002 1209.41 698.053 1180.12C678.754 1162.84 658.514 1147 637.332 1132.59C584.143 1097.06 524.834 1070.66 462.701 1055.77C452.346 1053.37 441.99 1051.45 432.106 1049.53C425.045 1048.09 417.984 1046.65 410.924 1045.21C380.328 1039.45 349.262 1036.09 317.725 1035.61C312.547 1043.29 318.666 1059.13 320.549 1066.82C323.844 1080.26 328.08 1093.22 333.258 1105.71C343.143 1132.11 357.264 1156.12 371.385 1180.12C392.566 1216.13 414.219 1251.66 437.754 1285.75C457.053 1313.6 477.293 1343.36 500.828 1367.85C534.248 1406.74 570.492 1442.75 610.031 1474.91C686.285 1537.33 773.365 1584.86 866.094 1617.03C923.049 1636.71 982.358 1650.64 1042.14 1658.32C1137.69 1669.84 1235.6 1666.96 1329.74 1646.8C1450.24 1621.35 1559.91 1570.46 1659.7 1497.96C1701.12 1467.71 1771.73 1392.81 1769.84 1391.37C1759.02 1399.06 1747.72 1407.22 1736.89 1414.9C1649.81 1475.87 1557.56 1526.29 1455.89 1557.49H1455.41Z" fill="#134A83"/>
<path d="M1591.04 727.038C1586.81 723.677 1579.28 722.237 1569.39 722.237C1558.57 722.237 1550.56 724.157 1545.39 728.478C1540.21 732.799 1537.86 739.041 1537.86 747.203L1541.15 763.527C1536.44 756.805 1530.32 750.564 1523.26 744.322C1516.2 738.081 1507.26 733.279 1496.9 728.958C1486.55 725.118 1473.84 722.717 1458.78 722.717C1441.83 722.717 1426.3 726.558 1411.24 733.76C1396.17 740.961 1382.99 751.044 1371.23 763.527C1359.46 776.01 1350.52 790.413 1343.46 806.737C1336.87 823.061 1333.57 839.865 1333.57 858.109C1333.57 876.354 1336.87 894.598 1343.46 911.402C1350.04 927.726 1359.46 942.61 1370.76 955.573C1382.05 968.536 1395.7 978.618 1410.77 985.82C1425.83 993.022 1441.83 996.863 1459.25 996.863C1475.25 996.863 1488.9 994.462 1500.2 989.181C1511.5 984.38 1520.44 978.618 1527.5 971.897C1534.56 965.175 1539.27 959.894 1542.09 955.093L1538.33 973.337C1538.33 980.539 1540.68 985.82 1545.86 990.141C1551.04 993.982 1558.57 996.383 1569.39 996.383C1580.22 996.383 1586.81 994.942 1591.52 992.062C1596.22 989.181 1599.05 984.86 1599.99 979.579C1600.93 974.297 1601.4 968.536 1601.4 962.294V758.726C1601.4 752.004 1600.93 746.243 1599.99 740.481C1599.05 735.2 1596.22 730.879 1591.99 727.518L1591.04 727.038ZM1525.62 895.558C1519.5 906.601 1511.5 915.243 1502.08 921.485C1492.2 927.726 1481.37 931.087 1468.66 931.087C1455.01 931.087 1443.24 927.726 1432.42 921.485C1421.59 915.243 1413.12 906.601 1407 896.039C1400.88 885.476 1397.59 872.993 1397.59 860.03C1397.59 847.067 1400.41 834.104 1406.53 823.061C1412.65 812.018 1420.65 803.376 1431.48 797.135C1441.83 790.413 1454.07 787.533 1467.25 787.533C1479.49 787.533 1490.79 790.413 1500.67 796.655C1510.55 802.896 1518.56 811.058 1525.15 822.101C1531.27 832.663 1534.56 845.626 1534.56 860.03C1534.56 873.473 1531.74 885.476 1525.62 896.519V895.558Z" fill="#134A83"/>
</g>
<defs>
<clipPath id="clip0_249_350">
<rect width="1928" height="1666" fill="white"/>
</clipPath>
</defs>
</svg>
